<svg xmlns="http://www.w3.org/2000/svg" version="1.1" xmlns:xlink="http://www.w3.org/1999/xlink" xmlns:svgjs="http://svgjs.dev/svgjs" width="1440" height="560" preserveAspectRatio="none" viewBox="0 0 1440 560"><g mask="url(&quot;#SvgjsMask1042&quot;)" fill="none"><rect width="1440" height="560" x="0" y="0" fill="rgba(50, 50, 79, 1)"></rect><path d="M 0,0 C 57.6,55.6 172.8,259.6 288,278 C 403.2,296.4 460.8,102.8 576,92 C 691.2,81.2 748.8,228.6 864,224 C 979.2,219.4 1036.8,80.4 1152,69 C 1267.2,57.6 1382.4,147.4 1440,167L1440 560L0 560z" fill="rgba(44, 100, 146, 1)"></path><path d="M 0,411 C 72,422.2 216,466.6 360,467 C 504,467.4 576,420.4 720,413 C 864,405.6 936,429.4 1080,430 C 1224,430.6 1368,418.8 1440,416L1440 560L0 560z" fill="rgba(79, 157, 223, 1)"></path></g><defs><mask id="SvgjsMask1042"><rect width="1440" height="560" fill="#ffffff"></rect></mask></defs></svg>